<?xml version="1.0" encoding="UTF-8" standalone="no"?>
<svg
   id="svg2"
   viewBox="0 0 1920 1482.0001"
   version="1.1"
   sodipodi:docname="MonitorTabletPhone_1920.svg"
   xml:space="preserve"
   inkscape:version="1.2.1 (9c6d41e410, 2022-07-14)"
   width="1920"
   height="1482"
   xmlns:inkscape="http://www.inkscape.org/namespaces/inkscape"
   xmlns:sodipodi="http://sodipodi.sourceforge.net/DTD/sodipodi-0.dtd"
   xmlns:xlink="http://www.w3.org/1999/xlink"
   xmlns="http://www.w3.org/2000/svg"
   xmlns:svg="http://www.w3.org/2000/svg"
   xmlns:rdf="http://www.w3.org/1999/02/22-rdf-syntax-ns#"><sodipodi:namedview
     id="namedview50"
     pagecolor="#505050"
     bordercolor="#ffffff"
     borderopacity="1"
     inkscape:showpageshadow="0"
     inkscape:pageopacity="0"
     inkscape:pagecheckerboard="1"
     inkscape:deskcolor="#505050"
     showgrid="false"
     inkscape:zoom="0.3820131"
     inkscape:cx="1033.996"
     inkscape:cy="812.79936"
     inkscape:window-width="1920"
     inkscape:window-height="991"
     inkscape:window-x="-9"
     inkscape:window-y="-9"
     inkscape:window-maximized="1"
     inkscape:current-layer="svg2" /><defs
     id="defs4"><linearGradient
       id="linearGradient3900"><stop
         id="stop3902"
         stop-color="#fff"
         offset="0" /><stop
         id="stop3904"
         stop-color="#fff"
         stop-opacity="0"
         offset="1" /></linearGradient><linearGradient
       id="linearGradient3368"
       y2="379.14999"
       xlink:href="#linearGradient3900"
       gradientUnits="userSpaceOnUse"
       x2="222.86"
       gradientTransform="matrix(1.3355,0,0,1.3355,-167.777,-367.55)"
       y1="236.28999"
       x1="84.642998" /><linearGradient
       id="linearGradient3382"
       y2="475.39999"
       gradientUnits="userSpaceOnUse"
       x2="221.61"
       gradientTransform="matrix(1.3355,0,0,1.3355,-158.476,-366.36)"
       y1="413.97"
       x1="222.32001"><stop
         id="stop3849"
         stop-color="#e6e6e6"
         offset="0" /><stop
         id="stop3859"
         stop-color="#ccc"
         offset=".18602" /><stop
         id="stop3853"
         stop-color="#fff"
         offset=".37208" /><stop
         id="stop3857"
         stop-color="#f9f9f9"
         offset=".45049" /><stop
         id="stop3855"
         stop-color="#ccc"
         offset=".62208" /><stop
         id="stop3851"
         stop-color="#ccc"
         offset="1" /></linearGradient><radialGradient
       id="radialGradient3385"
       gradientUnits="userSpaceOnUse"
       cy="-34.25"
       cx="749.09998"
       gradientTransform="matrix(0.59849,-0.66094,0.91769,0.83098,-267.97,749.19)"
       r="105.93"><stop
         id="stop3827"
         stop-color="#e6e6e6"
         offset="0" /><stop
         id="stop3829"
         stop-color="#ccc"
         offset="1" /></radialGradient><linearGradient
       id="linearGradient3398"
       y2="439.45001"
       xlink:href="#linearGradient3900"
       gradientUnits="userSpaceOnUse"
       x2="439.67001"
       gradientTransform="matrix(1.3355,0,0,1.3355,-304.07,-399.25)"
       y1="351.32001"
       x1="353.29999" /><linearGradient
       id="linearGradient3406"
       y2="598.21997"
       xlink:href="#linearGradient3900"
       gradientUnits="userSpaceOnUse"
       x2="134.89"
       gradientTransform="matrix(1.3355,0,0,1.3355,18.84,-560.02)"
       y1="498.34"
       x1="127.57" /></defs><g
     id="g442"
     transform="matrix(5.6339873,0,0,5.6276986,0.0098704,0.02017677)"><path
       id="rect2996"
       d="M 12.29,0 C 5.5383,0 0.118,5.4477 0.118,12.199 v 138.39 12.038 12.172 h 12.172 258.5 12.172 V 162.627 150.589 12.199 C 282.962,5.4473 277.5412,0 270.79,0 Z" /><path
       id="path3868"
       d="m 25.29,8.8 c -6.0724,0 -10.927,4.5932 -10.927,10.278 v 110.89 5.6257 14.767 4.0029 1.5958 h 0.13522 c 0.81716,4.9174 5.3035,8.6549 10.792,8.6549 h 232.52 c 5.4882,0 9.9745,-3.7375 10.792,-8.6549 h 0.13522 v -1.5958 -4.0029 -20.393 -110.89 c 0,-5.6845 -4.8544,-10.278 -10.927,-10.278 h -232.52 z"
       stroke="#999999"
       stroke-width="0.83748"
       fill="#ffffff" /><path
       id="rect3861"
       d="m 90.54,244.74 95.563,-1.1328 c 0,0 0.0182,2.8976 0.015,3.2755 -0.004,0.5388 -0.0215,2.0345 -1.0819,2.6416 -0.77177,0.44189 -5.1356,0.0342 -7.7871,0 -11.285,-0.14525 -59.875,-0.0494 -76.382,0 -9.9607,0.0298 -9.7889,0 -9.7889,0 -0.96818,-0.89431 -0.62713,-1.8424 -0.62713,-2.5765 0,-1.2509 0.0895,-2.2078 0.0895,-2.2078 z"
       fill="#999999" /><path
       id="path3898"
       d="m 25.79,9.13 c -6.0463,0 -10.88,4.5734 -10.88,10.233 v 110.41 5.6015 14.704 3.9857 1.5889 h 0.13464 c 0.81364,4.8962 5.2806,8.6177 10.745,8.6177 h 231.52 c 5.4645,0 9.9315,-3.7214 10.745,-8.6177 h 0.13465 v -1.5889 -3.9857 -20.305 -110.41 c 0,-5.66 -4.8335,-10.233 -10.88,-10.233 h -231.52 z"
       stroke="#999999"
       stroke-width="0.83388"
       fill="none" /><path
       id="path3014"
       d="m 122.7,173.45 v 0.16694 L 0,174.58108 l 15.705,20.488 106.99,-4e-5 h 37.019 l 107.59,-0.35309 15.63,-20.012 -123.22,-1.0864 v -0.16694 l -18.488,0.0835 z"
       fill="url(#radialGradient3385)"
       style="fill:url(#radialGradient3385)" /><path
       id="path3839"
       d="m 115.06,194.85 -6.4391,29.572 c 0,0 -13.775,13.47 -16.544,17.859 -1.4834,2.3515 -1.9515,2.3622 -1.2685,3.3365 0.95358,1.3602 1.7893,1.4724 4.3608,1.4346 15.593,-0.22927 64.449,-0.39319 83.942,-0.19241 4.6115,0.0476 5.5966,-0.68943 6.2655,-1.3841 0.57982,-0.60211 1.1406,-1.2272 0.012,-2.5077 -5.4954,-6.2362 -16.669,-18.546 -16.669,-18.546 l -2.0744,-29.687 z"
       fill="url(#linearGradient3382)"
       style="fill:url(#linearGradient3382)" /><path
       id="path3870"
       d="M 12.31,0 C 5.5583,0 0.123,5.4348 0.123,12.187 v 138.39 12.061 11.936 h -0.12513 l 0.12513,0.16694 v 0.0417 h 0.0417 l 15.525,20.283 h 5.7594 l 134.97,-195.07 h -144.11 z"
       fill="url(#linearGradient3368)"
       style="fill:url(#linearGradient3368)" /></g><g
     id="g396"
     transform="matrix(5.6339873,0,0,5.6276986,0.0098704,0.02017677)"><rect
       id="rect3918"
       ry="9.0623999"
       height="166.94"
       width="133.55"
       y="93.469994"
       x="207.23999"
       fill="#4d4d4d" /><rect
       id="rect3908"
       ry="9.0623999"
       height="166.94"
       width="133.55"
       y="96.139992"
       x="207.23999" /><rect
       id="rect3910"
       ry="0"
       height="140.78"
       width="116.82"
       y="106.59"
       x="215.60001"
       fill="#999999" /><rect
       id="rect3884"
       ry="0"
       height="138.50999"
       width="114.94"
       y="107.72999"
       x="216.54999"
       fill="#ffffff" /><path
       id="rect3057"
       d="m 216.32,96.14 c -5.0206,0 -9.0982,4.0359 -9.0982,9.0564 v 148.83 c 0,5.0206 4.0776,9.0564 9.0982,9.0564 h 5.4672 l 91.816,-166.94 h -97.284 z"
       fill="url(#linearGradient3398)"
       style="fill:url(#linearGradient3398)" /><path
       id="path3080"
       d="m 268.16,257.79 v -2.3609 l 4.8061,-2.2766 4.1315,1.855 0.0843,2.7824 z"
       stroke="#666666"
       stroke-width="0.80131"
       fill="none" /><g
       id="g3858"
       stroke-linejoin="round"
       transform="matrix(1.3355,0,0,1.3355,-291.42,-400.34)"
       stroke="#666666"
       stroke-linecap="round"
       stroke-width="0.52368"
       fill="#999999"><rect
         id="rect3852"
         height="0.33061999"
         width="7.2737002"
         y="489.79001"
         x="443.04001" /><rect
         id="rect3854"
         height="0.33061999"
         width="7.2737002"
         y="491.25"
         x="443.17001" /><rect
         id="rect3856"
         height="0.33061999"
         width="7.2737002"
         y="492.76001"
         x="443.04001" /></g><g
       id="g3867"
       transform="matrix(1.3355,0,0,1.3355,-304.07,-399.25)"
       stroke="#999999"><path
         id="path3863"
         d="m 402.04,491.66 h 8.0181 v -2.6516 h -7.955"
         stroke-width="0.2"
         fill="none" /><path
         id="path3865"
         d="m 402.6,488.69 v 0.90241 l -0.93645,-0.39162 z"
         stroke-width="0.7628px"
         fill="#999999" /></g></g><g
     id="g405"
     transform="matrix(5.6339873,0,0,5.6276986,0.0098704,0.02017677)"><path
       id="path3993"
       fill="#666666"
       d="m 201.34,165.58 v 0.0835 c -7.0546,-0.0107 -14.467,-0.0301 -19.991,0 -5.1658,0.0282 -6.1844,7.3757 -6.3854,9.6824 h -0.0835 v 1.0016 l -0.54255,72.744 v 0.70949 h 0.0835 c 0.15609,1.7586 1.1132,9.2774 6.5106,9.3068 5.6397,0.0307 13.22,0.0107 20.408,0 0.30872,-4.7e-4 0.56916,4.4e-4 0.87643,0 7.1887,0.0107 14.769,0.0307 20.408,0 6.0757,-0.0331 6.0098,-10.183 6.0098,-10.183 h -0.0417 l 0.16693,-73.244 c 0,0 0.001,-0.28133 0,-0.33388 -0.0215,-0.9488 -0.37824,-9.7345 -6.135,-9.7659 -5.8819,-0.0321 -13.822,-0.0107 -21.285,0 z" /><path
       id="path3937"
       d="m 201.34,166.92 v 0.0835 c -7.0546,-0.0107 -14.467,-0.0301 -19.991,0 -5.1658,0.0282 -6.1844,7.3757 -6.3854,9.6824 h -0.0835 v 1.0016 l -0.54255,72.744 v 0.70949 h 0.0835 c 0.15609,1.7586 1.1132,9.2774 6.5106,9.3068 5.6397,0.0307 13.22,0.0107 20.408,0 0.30872,-4.7e-4 0.56916,4.4e-4 0.87643,0 7.1887,0.0107 14.769,0.0307 20.408,0 6.0757,-0.0331 6.0098,-10.183 6.0098,-10.183 h -0.0417 l 0.16693,-73.244 c 0,0 0.001,-0.28133 0,-0.33388 -0.0215,-0.9488 -0.37824,-9.7345 -6.135,-9.7659 -5.8819,-0.0321 -13.822,-0.0107 -21.285,0 z" /><path
       id="path3967"
       fill="#666666"
       d="m 193.2,176.67 2.7966,-2.0508 11.326,0.13983 3.3093,1.911 z" /><path
       id="path3969"
       d="m 193.62,176.67 2.5169,-1.5704 11.326,0.13982 2.983,1.4306 z" /><rect
       id="rect4009"
       height="75.511002"
       width="49.766998"
       stroke="#808080"
       y="176.67"
       x="177.07999"
       stroke-width="0.2664"
       fill="#ffffff" /><path
       id="rect3979"
       d="m 200.86,255.23 -2.0261,1.9171 h 0.59015 v 1.4234 h 2.872 v -1.3912 l 0.80655,0.0159 z"
       stroke="#808080"
       stroke-width="0.64772"
       fill="none" /><path
       id="path4011"
       fill="url(#linearGradient3406)"
       d="m 201.34,166.92 v 0.0835 c -7.0546,-0.0107 -14.467,-0.0301 -19.991,0 -5.1658,0.0282 -6.1844,7.3757 -6.3854,9.6824 h -0.0835 v 1.0016 l -0.54255,72.744 v 0.70949 h 0.0835 c 0.15269,1.7203 1.0849,8.9229 6.1767,9.2651 l 43.404,-93.235 c -0.42824,-0.12835 -0.86799,-0.24763 -1.3772,-0.25041 -5.8819,-0.0321 -13.822,-0.0107 -21.285,0 z"
       style="fill:url(#linearGradient3406)" /></g><metadata
     id="metadata47"><rdf:RDF /></metadata></svg>
